<?xml version="1.0" encoding="UTF-8"?>
<svg xmlns="http://www.w3.org/2000/svg" xmlns:xlink="http://www.w3.org/1999/xlink" width="84px" height="38px" viewBox="0 0 84 38" version="1.1">
<g id="surface1">
<path style=" stroke:none;fill-rule:evenodd;fill:rgb(100%,100%,100%);fill-opacity:1;" d="M 84 32.914062 L 81.140625 32.914062 C 79.988281 32.914062 79.355469 32.234375 79.355469 31.089844 L 79.355469 25.839844 L 82.640625 25.839844 L 82.640625 24.488281 L 79.355469 24.488281 L 79.355469 20.117188 L 78.585938 20.117188 C 78.15625 20.117188 78.007812 20.261719 78.007812 20.695312 L 78.007812 31.089844 C 78.007812 31.972656 78.308594 32.722656 78.925781 33.347656 C 79.542969 33.960938 80.273438 34.265625 81.140625 34.265625 L 82.246094 34.265625 C 82.738281 34.265625 83.152344 34.082031 83.515625 33.742188 C 83.761719 33.5 83.925781 33.230469 84 32.914062 Z M 65.433594 34.265625 L 65.433594 28.558594 C 65.433594 27.367188 65.863281 26.34375 66.699219 25.496094 C 67.539062 24.636719 68.578125 24.207031 69.777344 24.207031 C 70.96875 24.207031 71.996094 24.652344 72.839844 25.496094 C 73.679688 26.335938 74.125 27.367188 74.125 28.5625 L 74.125 34.269531 L 74.894531 34.269531 C 75.324219 34.269531 75.472656 34.128906 75.472656 33.691406 L 75.472656 28.5625 C 75.472656 26.984375 74.90625 25.660156 73.792969 24.542969 C 72.675781 23.425781 71.351562 22.859375 69.777344 22.859375 C 68.199219 22.859375 66.863281 23.414062 65.746094 24.535156 C 64.640625 25.652344 64.085938 26.984375 64.085938 28.558594 L 64.085938 33.6875 C 64.085938 34.117188 64.226562 34.265625 64.664062 34.265625 Z M 60.195312 28.558594 C 60.195312 29.761719 59.761719 30.796875 58.910156 31.644531 C 58.066406 32.480469 57.039062 32.914062 55.855469 32.914062 C 54.660156 32.914062 53.625 32.492188 52.78125 31.644531 C 51.933594 30.796875 51.515625 29.757812 51.515625 28.5625 C 51.515625 27.371094 51.945312 26.347656 52.78125 25.5 C 53.621094 24.640625 54.660156 24.214844 55.859375 24.214844 C 57.050781 24.214844 58.078125 24.660156 58.921875 25.5 C 59.757812 26.335938 60.195312 27.367188 60.195312 28.558594 Z M 60.195312 34.265625 L 60.964844 34.265625 C 61.394531 34.265625 61.542969 34.125 61.542969 33.6875 L 61.542969 28.558594 C 61.542969 26.980469 60.976562 25.652344 59.863281 24.535156 C 58.746094 23.417969 57.421875 22.851562 55.847656 22.851562 C 54.265625 22.851562 52.933594 23.40625 51.816406 24.53125 C 50.710938 25.648438 50.15625 26.980469 50.15625 28.550781 C 50.15625 30.132812 50.703125 31.476562 51.816406 32.59375 C 52.933594 33.707031 54.273438 34.257812 55.847656 34.257812 C 57.195312 34.257812 58.386719 33.820312 59.453125 32.988281 L 60.195312 32.410156 Z M 46.277344 28.558594 C 46.277344 29.761719 45.84375 30.796875 44.988281 31.644531 C 44.140625 32.480469 43.113281 32.914062 41.929688 32.914062 C 40.734375 32.914062 39.703125 32.492188 38.855469 31.644531 C 38.011719 30.796875 37.589844 29.757812 37.589844 28.5625 C 37.589844 27.371094 38.023438 26.347656 38.855469 25.5 C 39.695312 24.640625 40.734375 24.214844 41.9375 24.214844 C 43.125 24.214844 44.152344 24.660156 45 25.5 C 45.832031 26.335938 46.277344 27.367188 46.277344 28.558594 Z M 46.277344 19.519531 L 46.277344 24.695312 L 45.535156 24.117188 C 44.472656 23.285156 43.277344 22.847656 41.929688 22.847656 C 40.347656 22.847656 39.011719 23.402344 37.898438 24.523438 C 36.789062 25.640625 36.238281 26.972656 36.238281 28.546875 C 36.238281 30.125 36.785156 31.46875 37.898438 32.585938 C 39.011719 33.703125 40.347656 34.253906 41.929688 34.253906 C 43.457031 34.253906 44.765625 33.71875 45.875 32.664062 C 46.976562 31.605469 47.625 30.324219 47.625 28.773438 L 47.625 20.097656 C 47.625 19.667969 47.484375 19.519531 47.046875 19.519531 Z M 32.351562 28.558594 C 32.351562 29.761719 31.921875 30.796875 31.066406 31.644531 C 30.222656 32.480469 29.195312 32.914062 28.011719 32.914062 C 26.816406 32.914062 25.785156 32.492188 24.9375 31.644531 C 24.089844 30.796875 23.671875 29.757812 23.671875 28.5625 C 23.671875 27.371094 24.101562 26.347656 24.9375 25.5 C 25.777344 24.640625 26.816406 24.214844 28.015625 24.214844 C 29.207031 24.214844 30.234375 24.660156 31.078125 25.5 C 31.910156 26.335938 32.351562 27.367188 32.351562 28.558594 Z M 32.351562 19.519531 L 32.351562 24.695312 L 31.609375 24.117188 C 30.550781 23.285156 29.351562 22.847656 28.003906 22.847656 C 26.425781 22.847656 25.089844 23.402344 23.976562 24.523438 C 22.867188 25.640625 22.3125 26.972656 22.3125 28.546875 C 22.3125 30.125 22.859375 31.46875 23.976562 32.585938 C 25.089844 33.703125 26.425781 34.253906 28.003906 34.253906 C 29.535156 34.253906 30.839844 33.71875 31.949219 32.664062 C 33.050781 31.605469 33.699219 30.324219 33.699219 28.773438 L 33.699219 20.097656 C 33.699219 19.667969 33.554688 19.519531 33.121094 19.519531 Z M 32.351562 19.519531 "/>
<path style=" stroke:none;fill-rule:nonzero;fill:rgb(100%,100%,100%);fill-opacity:1;" d="M 0.0078125 25.535156 C 0.0078125 25.546875 0 25.566406 0 25.578125 C -0.00390625 25.851562 0.25 26.066406 0.523438 26.007812 L 3.574219 25.355469 C 3.796875 25.308594 3.976562 25.144531 4.046875 24.929688 C 4.054688 24.90625 4.058594 24.882812 4.070312 24.863281 C 4.078125 24.847656 4.082031 24.828125 4.089844 24.804688 C 4.09375 24.78125 4.105469 24.757812 4.113281 24.734375 C 4.117188 24.722656 4.125 24.707031 4.128906 24.6875 C 4.136719 24.664062 4.148438 24.640625 4.160156 24.617188 C 4.164062 24.605469 4.171875 24.589844 4.175781 24.578125 C 4.1875 24.546875 4.199219 24.511719 4.210938 24.484375 C 4.222656 24.453125 4.234375 24.417969 4.253906 24.390625 C 4.265625 24.359375 4.28125 24.324219 4.292969 24.296875 C 4.300781 24.277344 4.304688 24.265625 4.316406 24.25 C 4.328125 24.21875 4.347656 24.191406 4.359375 24.160156 C 4.371094 24.132812 4.386719 24.105469 4.398438 24.074219 C 4.398438 24.070312 4.402344 24.0625 4.402344 24.058594 C 4.414062 24.035156 4.425781 24.011719 4.4375 23.988281 C 4.445312 23.980469 4.445312 23.976562 4.449219 23.964844 C 4.457031 23.953125 4.46875 23.933594 4.472656 23.921875 C 4.484375 23.898438 4.503906 23.871094 4.515625 23.847656 C 4.53125 23.816406 4.542969 23.792969 4.5625 23.765625 C 4.5625 23.757812 4.566406 23.757812 4.566406 23.753906 C 4.578125 23.734375 4.597656 23.707031 4.613281 23.675781 C 4.632812 23.648438 4.648438 23.617188 4.667969 23.589844 C 4.671875 23.578125 4.683594 23.566406 4.691406 23.554688 C 4.703125 23.535156 4.714844 23.511719 4.726562 23.496094 C 4.730469 23.484375 4.742188 23.472656 4.75 23.460938 C 4.785156 23.40625 4.820312 23.355469 4.851562 23.308594 C 4.859375 23.296875 4.871094 23.285156 4.882812 23.273438 C 4.898438 23.25 4.917969 23.222656 4.941406 23.199219 C 4.957031 23.175781 4.980469 23.144531 5 23.121094 C 5 23.117188 5.003906 23.117188 5.011719 23.109375 C 5.035156 23.082031 5.050781 23.058594 5.074219 23.027344 C 5.097656 23 5.128906 22.964844 5.152344 22.933594 C 5.15625 22.929688 5.164062 22.921875 5.167969 22.910156 C 5.1875 22.886719 5.203125 22.863281 5.226562 22.847656 C 5.226562 22.847656 5.226562 22.847656 5.234375 22.839844 C 5.257812 22.8125 5.277344 22.789062 5.300781 22.765625 C 5.308594 22.757812 5.308594 22.757812 5.3125 22.753906 C 5.335938 22.730469 5.359375 22.707031 5.382812 22.683594 C 5.390625 22.675781 5.394531 22.671875 5.394531 22.671875 C 5.441406 22.617188 5.496094 22.570312 5.542969 22.523438 L 5.546875 22.519531 C 5.570312 22.496094 5.601562 22.472656 5.625 22.449219 C 5.628906 22.441406 5.628906 22.441406 5.636719 22.4375 C 5.660156 22.414062 5.6875 22.390625 5.710938 22.367188 C 5.734375 22.34375 5.757812 22.328125 5.78125 22.304688 C 5.785156 22.296875 5.792969 22.292969 5.804688 22.285156 C 5.828125 22.261719 5.855469 22.238281 5.878906 22.214844 C 5.902344 22.199219 5.925781 22.175781 5.949219 22.15625 C 5.960938 22.144531 5.972656 22.140625 5.984375 22.132812 C 6.007812 22.117188 6.03125 22.097656 6.054688 22.082031 L 6.0625 22.074219 C 6.089844 22.050781 6.121094 22.035156 6.148438 22.011719 C 6.222656 21.953125 6.300781 21.898438 6.382812 21.847656 C 6.398438 21.835938 6.410156 21.824219 6.429688 21.816406 C 6.476562 21.789062 6.523438 21.753906 6.574219 21.722656 C 6.589844 21.710938 6.609375 21.707031 6.621094 21.695312 C 6.636719 21.683594 6.648438 21.675781 6.667969 21.664062 C 6.855469 21.554688 7.046875 21.457031 7.246094 21.367188 C 7.261719 21.363281 7.273438 21.355469 7.292969 21.34375 C 7.308594 21.339844 7.328125 21.328125 7.351562 21.320312 C 7.421875 21.292969 7.484375 21.261719 7.554688 21.238281 C 7.675781 21.191406 7.792969 21.152344 7.921875 21.109375 C 7.9375 21.105469 7.957031 21.097656 7.980469 21.09375 C 8.097656 21.058594 8.21875 21.027344 8.335938 21 C 8.363281 20.992188 8.398438 20.988281 8.433594 20.976562 C 8.585938 20.945312 8.734375 20.917969 8.890625 20.898438 C 8.914062 20.894531 8.929688 20.894531 8.953125 20.894531 C 8.964844 20.894531 8.984375 20.886719 9 20.886719 C 9.019531 20.886719 9.03125 20.882812 9.046875 20.882812 C 9.066406 20.882812 9.089844 20.875 9.105469 20.875 C 9.125 20.875 9.148438 20.871094 9.164062 20.871094 C 9.28125 20.859375 9.402344 20.851562 9.519531 20.851562 C 9.539062 20.851562 9.554688 20.851562 9.574219 20.851562 C 9.597656 20.851562 9.625 20.851562 9.648438 20.851562 C 9.671875 20.851562 9.699219 20.851562 9.722656 20.851562 C 9.742188 20.851562 9.757812 20.851562 9.777344 20.851562 C 9.90625 20.851562 10.035156 20.863281 10.15625 20.875 C 10.179688 20.875 10.195312 20.882812 10.21875 20.882812 C 10.238281 20.882812 10.253906 20.886719 10.277344 20.886719 C 10.289062 20.886719 10.300781 20.886719 10.3125 20.894531 C 10.332031 20.894531 10.355469 20.898438 10.371094 20.898438 C 10.382812 20.898438 10.402344 20.90625 10.414062 20.90625 C 10.429688 20.90625 10.441406 20.910156 10.460938 20.910156 C 10.484375 20.917969 10.507812 20.917969 10.527344 20.921875 C 10.550781 20.921875 10.570312 20.929688 10.59375 20.933594 C 10.632812 20.941406 10.675781 20.945312 10.714844 20.957031 C 10.734375 20.964844 10.75 20.964844 10.769531 20.96875 C 10.890625 20.992188 11.019531 21.023438 11.140625 21.050781 C 11.160156 21.058594 11.183594 21.0625 11.199219 21.070312 C 11.21875 21.074219 11.242188 21.082031 11.257812 21.085938 C 11.300781 21.097656 11.335938 21.109375 11.375 21.121094 C 11.414062 21.132812 11.449219 21.144531 11.492188 21.15625 C 11.507812 21.164062 11.53125 21.167969 11.550781 21.175781 C 11.566406 21.179688 11.589844 21.1875 11.609375 21.191406 C 11.648438 21.203125 11.683594 21.222656 11.726562 21.234375 C 11.742188 21.238281 11.761719 21.246094 11.777344 21.25 C 11.800781 21.257812 11.820312 21.269531 11.839844 21.273438 C 11.859375 21.28125 11.875 21.292969 11.898438 21.296875 C 11.933594 21.316406 11.976562 21.328125 12.011719 21.34375 C 12.027344 21.351562 12.050781 21.363281 12.070312 21.367188 C 12.105469 21.386719 12.140625 21.402344 12.175781 21.414062 C 12.210938 21.433594 12.246094 21.449219 12.273438 21.460938 C 12.289062 21.472656 12.3125 21.484375 12.332031 21.492188 C 12.359375 21.507812 12.394531 21.519531 12.425781 21.539062 C 12.449219 21.550781 12.472656 21.566406 12.5 21.578125 C 12.519531 21.589844 12.53125 21.59375 12.546875 21.601562 C 12.582031 21.617188 12.617188 21.640625 12.652344 21.660156 C 12.671875 21.671875 12.6875 21.683594 12.707031 21.6875 C 12.722656 21.699219 12.738281 21.710938 12.757812 21.71875 C 12.808594 21.746094 12.855469 21.78125 12.910156 21.816406 C 12.925781 21.828125 12.945312 21.839844 12.957031 21.851562 C 12.972656 21.863281 12.992188 21.875 13.003906 21.886719 L 13.007812 21.894531 C 13.066406 21.933594 13.121094 21.976562 13.175781 22.015625 C 13.230469 22.058594 13.28125 22.097656 13.335938 22.140625 C 13.359375 22.15625 13.382812 22.179688 13.40625 22.199219 C 13.429688 22.214844 13.453125 22.238281 13.476562 22.257812 C 13.488281 22.269531 13.503906 22.28125 13.515625 22.292969 C 13.535156 22.308594 13.550781 22.320312 13.570312 22.339844 C 13.582031 22.351562 13.589844 22.363281 13.601562 22.375 C 13.621094 22.390625 13.636719 22.402344 13.65625 22.421875 C 13.667969 22.429688 13.679688 22.441406 13.691406 22.453125 C 13.714844 22.476562 13.738281 22.5 13.761719 22.523438 C 13.777344 22.542969 13.796875 22.558594 13.820312 22.582031 C 13.835938 22.601562 13.859375 22.625 13.878906 22.640625 C 13.894531 22.660156 13.914062 22.675781 13.929688 22.699219 C 13.941406 22.710938 13.949219 22.71875 13.960938 22.730469 C 13.976562 22.746094 13.996094 22.769531 14.011719 22.789062 C 14.027344 22.8125 14.046875 22.828125 14.070312 22.851562 C 14.09375 22.875 14.109375 22.898438 14.132812 22.929688 L 14.140625 22.933594 C 14.15625 22.957031 14.175781 22.980469 14.199219 23.003906 C 14.257812 23.074219 14.308594 23.144531 14.363281 23.222656 C 14.378906 23.246094 14.398438 23.269531 14.414062 23.292969 C 14.421875 23.300781 14.425781 23.308594 14.433594 23.320312 C 14.449219 23.34375 14.464844 23.367188 14.484375 23.390625 C 14.507812 23.417969 14.523438 23.453125 14.546875 23.484375 C 14.566406 23.511719 14.582031 23.535156 14.601562 23.566406 C 14.625 23.605469 14.652344 23.648438 14.675781 23.6875 C 14.695312 23.71875 14.707031 23.742188 14.722656 23.769531 C 14.730469 23.777344 14.734375 23.789062 14.734375 23.792969 C 14.753906 23.824219 14.769531 23.851562 14.78125 23.882812 C 14.800781 23.917969 14.816406 23.945312 14.835938 23.980469 L 14.835938 23.988281 C 14.851562 24.015625 14.863281 24.046875 14.882812 24.082031 C 14.882812 24.085938 14.886719 24.09375 14.886719 24.097656 C 14.902344 24.128906 14.914062 24.160156 14.933594 24.191406 C 14.945312 24.214844 14.957031 24.238281 14.96875 24.261719 C 14.972656 24.277344 14.984375 24.289062 14.992188 24.308594 L 14.992188 24.3125 C 15.003906 24.34375 15.015625 24.367188 15.027344 24.394531 L 15.027344 24.402344 C 15.042969 24.4375 15.054688 24.472656 15.066406 24.507812 C 15.078125 24.535156 15.089844 24.566406 15.101562 24.59375 C 15.109375 24.605469 15.113281 24.617188 15.113281 24.628906 C 15.125 24.660156 15.132812 24.683594 15.144531 24.710938 C 15.148438 24.722656 15.148438 24.730469 15.15625 24.742188 C 15.167969 24.765625 15.171875 24.792969 15.183594 24.816406 C 15.183594 24.824219 15.183594 24.824219 15.183594 24.828125 C 15.191406 24.839844 15.191406 24.851562 15.195312 24.863281 C 15.207031 24.894531 15.214844 24.921875 15.226562 24.953125 C 15.242188 25.011719 15.265625 25.054688 15.300781 25.109375 C 15.394531 25.25 15.535156 25.347656 15.703125 25.382812 L 18.75 26.015625 C 19.039062 26.074219 19.300781 25.835938 19.269531 25.535156 C 18.671875 20.726562 14.535156 17.007812 9.644531 17.007812 C 4.730469 16.988281 0.59375 20.710938 0.0078125 25.535156 Z M 0.0078125 25.535156 "/>
<path style=" stroke:none;fill-rule:nonzero;fill:rgb(100%,100%,100%);fill-opacity:1;" d="M 18.742188 27.367188 L 18.210938 27.476562 C 17.921875 27.542969 17.628906 27.605469 17.335938 27.664062 C 16.789062 27.78125 16.246094 27.898438 15.699219 28.015625 L 15.6875 28.015625 C 15.539062 28.050781 15.410156 28.132812 15.324219 28.25 C 15.285156 28.308594 15.25 28.371094 15.226562 28.441406 C 15.21875 28.472656 15.207031 28.496094 15.203125 28.523438 C 14.4375 30.875 12.234375 32.570312 9.632812 32.570312 C 9.609375 32.570312 9.578125 32.570312 9.554688 32.570312 C 9.539062 32.570312 9.519531 32.570312 9.503906 32.570312 C 9.480469 32.570312 9.457031 32.570312 9.4375 32.570312 C 9.414062 32.570312 9.398438 32.570312 9.375 32.570312 C 9.285156 32.5625 9.207031 32.558594 9.117188 32.550781 C 9.101562 32.550781 9.082031 32.546875 9.058594 32.546875 C 9.046875 32.546875 9.03125 32.546875 9.019531 32.539062 C 9 32.539062 8.984375 32.535156 8.964844 32.535156 C 8.84375 32.523438 8.722656 32.503906 8.605469 32.480469 C 8.585938 32.476562 8.5625 32.476562 8.546875 32.46875 C 8.445312 32.453125 8.355469 32.429688 8.253906 32.410156 C 8.238281 32.40625 8.214844 32.398438 8.195312 32.398438 C 8.160156 32.386719 8.121094 32.382812 8.085938 32.371094 C 8.066406 32.363281 8.054688 32.363281 8.039062 32.359375 C 7.894531 32.316406 7.746094 32.269531 7.605469 32.21875 C 7.589844 32.210938 7.566406 32.207031 7.546875 32.195312 C 7.535156 32.1875 7.519531 32.183594 7.507812 32.175781 C 7.445312 32.152344 7.378906 32.125 7.316406 32.101562 C 7.285156 32.089844 7.257812 32.078125 7.226562 32.058594 C 7.128906 32.011719 7.035156 31.972656 6.941406 31.921875 C 6.925781 31.910156 6.90625 31.902344 6.890625 31.890625 C 6.859375 31.875 6.832031 31.863281 6.800781 31.84375 C 6.789062 31.839844 6.773438 31.832031 6.761719 31.820312 C 6.75 31.816406 6.742188 31.808594 6.730469 31.804688 C 6.714844 31.792969 6.695312 31.785156 6.679688 31.773438 C 6.644531 31.757812 6.609375 31.734375 6.574219 31.710938 C 6.558594 31.699219 6.539062 31.6875 6.523438 31.679688 C 6.503906 31.667969 6.488281 31.65625 6.46875 31.644531 C 6.453125 31.632812 6.433594 31.621094 6.417969 31.609375 C 6.394531 31.597656 6.375 31.582031 6.351562 31.570312 C 6.335938 31.558594 6.3125 31.539062 6.292969 31.527344 C 6.253906 31.5 6.21875 31.476562 6.175781 31.445312 C 6.160156 31.433594 6.136719 31.417969 6.121094 31.40625 C 6.097656 31.386719 6.078125 31.375 6.054688 31.359375 C 6.03125 31.339844 6.007812 31.324219 5.984375 31.304688 C 5.980469 31.300781 5.972656 31.292969 5.96875 31.289062 C 5.957031 31.277344 5.945312 31.269531 5.933594 31.257812 C 5.914062 31.242188 5.890625 31.222656 5.867188 31.207031 C 5.855469 31.195312 5.84375 31.1875 5.839844 31.175781 C 5.820312 31.160156 5.804688 31.148438 5.78125 31.128906 C 5.769531 31.117188 5.757812 31.113281 5.746094 31.101562 C 5.742188 31.09375 5.734375 31.089844 5.730469 31.089844 C 5.710938 31.078125 5.699219 31.0625 5.683594 31.050781 C 5.648438 31.019531 5.613281 30.984375 5.582031 30.957031 C 5.566406 30.9375 5.542969 30.921875 5.523438 30.902344 C 5.496094 30.875 5.464844 30.84375 5.4375 30.816406 C 5.425781 30.804688 5.414062 30.792969 5.402344 30.78125 C 5.382812 30.761719 5.359375 30.738281 5.34375 30.722656 C 5.320312 30.699219 5.296875 30.667969 5.269531 30.640625 C 5.269531 30.640625 5.269531 30.632812 5.261719 30.632812 C 5.238281 30.605469 5.214844 30.582031 5.1875 30.550781 L 5.179688 30.546875 C 5.082031 30.433594 4.988281 30.316406 4.898438 30.195312 C 4.894531 30.191406 4.886719 30.183594 4.882812 30.171875 C 4.867188 30.148438 4.847656 30.125 4.832031 30.101562 C 4.832031 30.101562 4.832031 30.097656 4.824219 30.097656 C 4.808594 30.074219 4.789062 30.050781 4.777344 30.027344 C 4.765625 30.007812 4.753906 29.992188 4.742188 29.972656 C 4.726562 29.949219 4.714844 29.925781 4.695312 29.902344 C 4.707031 29.890625 4.683594 29.863281 4.667969 29.828125 C 4.625 29.761719 4.589844 29.699219 4.550781 29.632812 C 4.550781 29.632812 4.550781 29.628906 4.542969 29.628906 C 4.527344 29.59375 4.507812 29.5625 4.484375 29.527344 C 4.449219 29.464844 4.417969 29.394531 4.382812 29.324219 C 4.363281 29.289062 4.351562 29.261719 4.335938 29.226562 C 4.328125 29.21875 4.328125 29.214844 4.324219 29.203125 C 4.3125 29.171875 4.300781 29.148438 4.289062 29.121094 C 4.289062 29.113281 4.28125 29.109375 4.28125 29.109375 C 4.265625 29.074219 4.253906 29.042969 4.242188 29.007812 C 4.222656 28.972656 4.210938 28.9375 4.195312 28.902344 C 4.183594 28.867188 4.164062 28.832031 4.152344 28.792969 C 4.140625 28.757812 4.125 28.722656 4.113281 28.679688 C 4.101562 28.644531 4.089844 28.609375 4.078125 28.582031 L 4.078125 28.574219 C 4.066406 28.535156 4.046875 28.496094 4.035156 28.453125 C 4.035156 28.449219 4.035156 28.449219 4.03125 28.441406 C 3.960938 28.230469 3.78125 28.078125 3.570312 28.03125 L 0.519531 27.402344 C 0.269531 27.347656 0.0429688 27.523438 0.0078125 27.757812 C 0 27.796875 0 27.832031 0.0078125 27.878906 C 0.582031 32.699219 4.671875 36.425781 9.632812 36.425781 C 11.761719 36.425781 13.726562 35.742188 15.324219 34.574219 C 15.34375 34.5625 15.363281 34.546875 15.382812 34.535156 L 15.386719 34.527344 L 15.386719 34.789062 C 15.386719 35.339844 15.605469 35.84375 15.953125 36.207031 C 16.304688 36.566406 16.789062 36.789062 17.324219 36.789062 C 18.398438 36.789062 19.261719 35.894531 19.261719 34.789062 L 19.261719 27.804688 C 19.261719 27.773438 19.261719 27.746094 19.257812 27.722656 C 19.222656 27.519531 19.039062 27.359375 18.832031 27.359375 C 18.800781 27.355469 18.773438 27.359375 18.742188 27.367188 Z M 18.742188 27.367188 "/>
<path style=" stroke:none;fill-rule:nonzero;fill:rgb(100%,100%,100%);fill-opacity:1;" d="M 15.203125 28.535156 C 14.351562 31.898438 11.3125 34.382812 7.6875 34.382812 C 3.796875 34.382812 0.558594 31.503906 0.00390625 27.757812 C 0.0390625 27.523438 0.273438 27.347656 0.519531 27.402344 L 3.570312 28.03125 C 3.785156 28.078125 3.960938 28.238281 4.03125 28.441406 C 4.03125 28.449219 4.03125 28.449219 4.035156 28.453125 C 4.046875 28.496094 4.058594 28.535156 4.078125 28.574219 L 4.078125 28.582031 C 4.089844 28.617188 4.101562 28.652344 4.113281 28.679688 C 4.125 28.714844 4.140625 28.757812 4.152344 28.792969 C 4.164062 28.828125 4.183594 28.863281 4.195312 28.902344 C 4.210938 28.9375 4.222656 28.972656 4.242188 29.007812 C 4.253906 29.042969 4.269531 29.074219 4.28125 29.109375 C 4.28125 29.113281 4.289062 29.121094 4.289062 29.121094 C 4.300781 29.148438 4.3125 29.171875 4.324219 29.203125 C 4.328125 29.207031 4.328125 29.214844 4.335938 29.226562 C 4.351562 29.261719 4.363281 29.289062 4.378906 29.324219 C 4.414062 29.394531 4.449219 29.457031 4.484375 29.527344 C 4.503906 29.5625 4.519531 29.59375 4.542969 29.628906 C 4.542969 29.628906 4.542969 29.632812 4.550781 29.632812 C 4.585938 29.699219 4.625 29.761719 4.667969 29.828125 C 4.683594 29.863281 4.707031 29.890625 4.730469 29.925781 C 4.75 29.949219 4.761719 29.972656 4.777344 29.996094 C 4.789062 30.015625 4.800781 30.03125 4.8125 30.050781 C 4.828125 30.074219 4.847656 30.097656 4.859375 30.121094 C 4.859375 30.121094 4.859375 30.125 4.863281 30.125 C 4.882812 30.148438 4.898438 30.171875 4.917969 30.195312 C 4.921875 30.203125 4.929688 30.214844 4.933594 30.21875 C 5.023438 30.335938 5.117188 30.453125 5.214844 30.570312 L 5.21875 30.574219 C 5.242188 30.605469 5.265625 30.628906 5.296875 30.65625 C 5.296875 30.65625 5.296875 30.664062 5.300781 30.664062 C 5.324219 30.691406 5.347656 30.714844 5.378906 30.746094 C 5.394531 30.769531 5.417969 30.785156 5.4375 30.804688 C 5.449219 30.816406 5.460938 30.828125 5.472656 30.839844 C 5.5 30.867188 5.53125 30.898438 5.558594 30.925781 C 5.578125 30.945312 5.59375 30.960938 5.617188 30.980469 C 5.652344 31.007812 5.679688 31.042969 5.714844 31.074219 C 5.734375 31.085938 5.746094 31.101562 5.761719 31.113281 C 5.769531 31.117188 5.773438 31.125 5.78125 31.125 C 5.792969 31.136719 5.804688 31.140625 5.816406 31.152344 C 5.832031 31.171875 5.851562 31.183594 5.875 31.199219 C 5.886719 31.210938 5.898438 31.21875 5.902344 31.230469 C 5.921875 31.246094 5.945312 31.265625 5.96875 31.28125 C 5.980469 31.292969 5.992188 31.300781 6.003906 31.3125 C 6.007812 31.316406 6.015625 31.324219 6.019531 31.328125 C 6.042969 31.347656 6.066406 31.363281 6.089844 31.382812 C 6.113281 31.398438 6.128906 31.417969 6.152344 31.429688 C 6.230469 31.488281 6.304688 31.539062 6.386719 31.59375 C 6.410156 31.605469 6.429688 31.621094 6.453125 31.632812 C 6.46875 31.644531 6.488281 31.65625 6.503906 31.667969 C 6.523438 31.679688 6.539062 31.691406 6.554688 31.703125 C 6.574219 31.714844 6.589844 31.726562 6.609375 31.734375 C 6.644531 31.757812 6.679688 31.773438 6.714844 31.796875 C 6.730469 31.808594 6.75 31.816406 6.765625 31.828125 C 6.777344 31.832031 6.785156 31.839844 6.796875 31.84375 C 6.808594 31.851562 6.824219 31.863281 6.835938 31.867188 C 6.867188 31.886719 6.894531 31.902344 6.925781 31.914062 C 6.941406 31.925781 6.960938 31.933594 6.976562 31.945312 C 7.070312 31.988281 7.167969 32.035156 7.261719 32.082031 C 7.292969 32.09375 7.320312 32.105469 7.351562 32.125 C 7.414062 32.152344 7.476562 32.175781 7.542969 32.199219 C 7.554688 32.207031 7.570312 32.210938 7.582031 32.21875 C 7.601562 32.222656 7.617188 32.230469 7.640625 32.242188 C 7.78125 32.292969 7.925781 32.339844 8.074219 32.382812 C 8.089844 32.386719 8.101562 32.386719 8.121094 32.394531 C 8.15625 32.40625 8.195312 32.410156 8.230469 32.421875 C 8.25 32.429688 8.273438 32.433594 8.289062 32.433594 C 8.382812 32.457031 8.480469 32.476562 8.582031 32.492188 C 8.597656 32.5 8.621094 32.5 8.640625 32.503906 C 8.753906 32.527344 8.878906 32.546875 9 32.558594 C 9.019531 32.558594 9.035156 32.5625 9.054688 32.5625 C 9.066406 32.5625 9.078125 32.5625 9.09375 32.570312 C 9.113281 32.570312 9.128906 32.574219 9.152344 32.574219 C 9.234375 32.582031 9.320312 32.585938 9.410156 32.59375 C 9.425781 32.59375 9.449219 32.59375 9.472656 32.59375 C 9.496094 32.59375 9.519531 32.59375 9.539062 32.59375 C 9.554688 32.59375 9.574219 32.59375 9.589844 32.59375 C 9.613281 32.59375 9.640625 32.59375 9.664062 32.59375 C 12.230469 32.582031 14.4375 30.886719 15.203125 28.535156 Z M 15.203125 28.535156 "/>
<path style=" stroke:none;fill-rule:nonzero;fill:rgb(100%,100%,100%);fill-opacity:1;" d="M 15.289062 25.097656 C 15.261719 25.050781 15.230469 25 15.214844 24.941406 C 15.203125 24.910156 15.195312 24.882812 15.183594 24.851562 C 15.179688 24.839844 15.179688 24.828125 15.171875 24.816406 C 15.171875 24.8125 15.171875 24.8125 15.171875 24.804688 C 15.160156 24.78125 15.15625 24.753906 15.144531 24.730469 C 15.136719 24.71875 15.136719 24.710938 15.132812 24.699219 C 15.121094 24.671875 15.113281 24.648438 15.101562 24.617188 C 15.097656 24.605469 15.089844 24.59375 15.089844 24.582031 C 15.078125 24.554688 15.066406 24.523438 15.054688 24.496094 C 15.042969 24.460938 15.027344 24.425781 15.015625 24.390625 L 15.015625 24.382812 C 15.003906 24.355469 14.992188 24.332031 14.980469 24.300781 L 14.980469 24.296875 C 14.972656 24.277344 14.96875 24.265625 14.957031 24.25 C 14.945312 24.226562 14.933594 24.203125 14.921875 24.179688 C 14.910156 24.152344 14.894531 24.117188 14.875 24.085938 C 14.871094 24.082031 14.871094 24.074219 14.871094 24.070312 C 14.851562 24.039062 14.839844 24.011719 14.824219 23.976562 L 14.824219 23.96875 C 14.804688 23.933594 14.789062 23.898438 14.769531 23.871094 C 14.753906 23.839844 14.734375 23.8125 14.722656 23.78125 C 14.71875 23.777344 14.710938 23.765625 14.710938 23.757812 C 14.695312 23.730469 14.683594 23.707031 14.664062 23.675781 C 14.640625 23.636719 14.617188 23.59375 14.589844 23.554688 C 14.570312 23.523438 14.554688 23.5 14.535156 23.472656 C 14.511719 23.441406 14.496094 23.40625 14.472656 23.378906 C 14.457031 23.355469 14.4375 23.332031 14.421875 23.308594 C 14.414062 23.296875 14.410156 23.292969 14.402344 23.28125 C 14.386719 23.257812 14.367188 23.234375 14.351562 23.210938 C 14.296875 23.140625 14.238281 23.0625 14.1875 22.992188 C 14.167969 22.96875 14.152344 22.945312 14.128906 22.921875 L 14.121094 22.917969 C 14.097656 22.894531 14.082031 22.871094 14.058594 22.839844 C 14.039062 22.816406 14.023438 22.800781 14 22.777344 C 13.984375 22.757812 13.964844 22.734375 13.949219 22.71875 C 13.9375 22.707031 13.929688 22.699219 13.917969 22.6875 C 13.902344 22.671875 13.882812 22.648438 13.867188 22.628906 C 13.847656 22.613281 13.824219 22.589844 13.808594 22.570312 C 13.789062 22.554688 13.773438 22.535156 13.75 22.511719 C 13.726562 22.488281 13.703125 22.464844 13.679688 22.445312 C 13.667969 22.433594 13.65625 22.421875 13.644531 22.410156 C 13.625 22.390625 13.609375 22.378906 13.589844 22.363281 C 13.582031 22.351562 13.570312 22.339844 13.558594 22.328125 C 13.539062 22.308594 13.523438 22.296875 13.503906 22.28125 C 13.492188 22.269531 13.476562 22.257812 13.464844 22.246094 C 13.441406 22.226562 13.417969 22.203125 13.394531 22.1875 C 13.371094 22.167969 13.347656 22.144531 13.324219 22.128906 C 13.269531 22.085938 13.21875 22.046875 13.164062 22.003906 C 13.109375 21.964844 13.054688 21.921875 12.996094 21.882812 L 12.992188 21.875 C 12.972656 21.863281 12.957031 21.851562 12.945312 21.839844 C 12.925781 21.828125 12.910156 21.816406 12.898438 21.804688 C 12.84375 21.769531 12.796875 21.742188 12.746094 21.707031 C 12.726562 21.695312 12.710938 21.683594 12.695312 21.675781 C 12.675781 21.664062 12.660156 21.652344 12.640625 21.648438 C 12.605469 21.625 12.570312 21.605469 12.535156 21.589844 C 12.519531 21.578125 12.507812 21.574219 12.488281 21.566406 C 12.464844 21.554688 12.441406 21.539062 12.414062 21.527344 C 12.382812 21.507812 12.347656 21.492188 12.320312 21.480469 C 12.300781 21.46875 12.277344 21.457031 12.261719 21.449219 C 12.226562 21.433594 12.191406 21.414062 12.164062 21.402344 C 12.128906 21.386719 12.09375 21.367188 12.058594 21.355469 C 12.039062 21.34375 12.015625 21.339844 12 21.332031 C 11.964844 21.316406 11.921875 21.296875 11.886719 21.285156 C 11.871094 21.28125 11.851562 21.269531 11.832031 21.261719 C 11.808594 21.257812 11.789062 21.246094 11.765625 21.238281 C 11.75 21.234375 11.730469 21.226562 11.714844 21.222656 C 11.679688 21.210938 11.636719 21.191406 11.597656 21.179688 C 11.578125 21.175781 11.554688 21.167969 11.539062 21.164062 C 11.519531 21.15625 11.496094 21.152344 11.480469 21.144531 C 11.4375 21.132812 11.402344 21.121094 11.363281 21.109375 C 11.324219 21.097656 11.289062 21.085938 11.246094 21.074219 C 11.230469 21.070312 11.207031 21.0625 11.1875 21.058594 C 11.171875 21.050781 11.148438 21.046875 11.128906 21.039062 C 11.007812 21.003906 10.886719 20.980469 10.757812 20.957031 C 10.738281 20.953125 10.722656 20.953125 10.703125 20.945312 C 10.664062 20.941406 10.621094 20.929688 10.582031 20.921875 C 10.5625 20.917969 10.539062 20.917969 10.519531 20.910156 C 10.496094 20.90625 10.472656 20.90625 10.441406 20.898438 C 10.425781 20.898438 10.414062 20.894531 10.394531 20.894531 C 10.382812 20.894531 10.367188 20.886719 10.355469 20.886719 C 10.335938 20.886719 10.3125 20.882812 10.296875 20.882812 C 10.285156 20.882812 10.273438 20.875 10.261719 20.875 C 10.242188 20.875 10.226562 20.871094 10.203125 20.871094 C 10.179688 20.871094 10.160156 20.863281 10.136719 20.863281 C 10.011719 20.851562 9.886719 20.847656 9.757812 20.839844 C 9.742188 20.839844 9.722656 20.839844 9.707031 20.839844 C 9.683594 20.839844 9.652344 20.839844 9.632812 20.839844 C 9.609375 20.839844 9.578125 20.839844 9.554688 20.839844 C 9.539062 20.839844 9.519531 20.839844 9.503906 20.839844 C 9.378906 20.839844 9.261719 20.851562 9.148438 20.859375 C 9.128906 20.859375 9.105469 20.863281 9.089844 20.863281 C 9.070312 20.863281 9.046875 20.871094 9.03125 20.871094 C 9.011719 20.871094 9 20.875 8.984375 20.875 C 8.964844 20.875 8.953125 20.882812 8.9375 20.882812 C 8.914062 20.882812 8.894531 20.886719 8.871094 20.886719 C 8.722656 20.90625 8.570312 20.933594 8.417969 20.964844 C 8.382812 20.96875 8.351562 20.976562 8.320312 20.988281 C 8.195312 21.015625 8.078125 21.046875 7.960938 21.082031 C 7.945312 21.085938 7.921875 21.09375 7.902344 21.097656 C 7.78125 21.140625 7.660156 21.179688 7.535156 21.226562 C 7.464844 21.257812 7.398438 21.28125 7.332031 21.308594 C 7.316406 21.316406 7.296875 21.328125 7.273438 21.332031 C 7.257812 21.339844 7.246094 21.34375 7.226562 21.355469 C 7.027344 21.445312 6.835938 21.542969 6.648438 21.652344 C 6.632812 21.664062 6.621094 21.671875 6.601562 21.683594 C 6.585938 21.695312 6.570312 21.699219 6.558594 21.710938 C 6.511719 21.742188 6.457031 21.769531 6.410156 21.804688 C 6.394531 21.816406 6.382812 21.828125 6.363281 21.835938 C 6.28125 21.886719 6.207031 21.941406 6.132812 22 C 6.101562 22.023438 6.074219 22.039062 6.042969 22.0625 L 6.039062 22.070312 C 6.015625 22.085938 5.992188 22.105469 5.96875 22.121094 C 5.957031 22.132812 5.945312 22.140625 5.933594 22.144531 C 5.910156 22.164062 5.886719 22.1875 5.863281 22.203125 C 5.832031 22.226562 5.808594 22.25 5.785156 22.273438 C 5.78125 22.28125 5.773438 22.285156 5.761719 22.292969 C 5.738281 22.316406 5.714844 22.332031 5.695312 22.355469 C 5.664062 22.378906 5.640625 22.402344 5.617188 22.425781 C 5.613281 22.433594 5.613281 22.433594 5.605469 22.4375 C 5.589844 22.460938 5.558594 22.484375 5.535156 22.507812 L 5.53125 22.511719 C 5.476562 22.558594 5.429688 22.613281 5.382812 22.660156 C 5.378906 22.664062 5.371094 22.671875 5.371094 22.671875 C 5.347656 22.695312 5.324219 22.71875 5.300781 22.742188 C 5.296875 22.746094 5.296875 22.746094 5.289062 22.753906 C 5.273438 22.789062 5.25 22.8125 5.226562 22.839844 C 5.226562 22.839844 5.226562 22.839844 5.222656 22.847656 C 5.203125 22.871094 5.179688 22.894531 5.164062 22.910156 C 5.15625 22.917969 5.152344 22.921875 5.144531 22.933594 C 5.121094 22.964844 5.09375 22.992188 5.070312 23.027344 C 5.046875 23.058594 5.023438 23.082031 5.003906 23.109375 C 5 23.117188 5 23.117188 4.992188 23.121094 C 4.976562 23.144531 4.953125 23.175781 4.933594 23.199219 C 4.917969 23.222656 4.894531 23.25 4.875 23.273438 C 4.863281 23.285156 4.859375 23.296875 4.847656 23.308594 C 4.8125 23.359375 4.777344 23.40625 4.742188 23.460938 C 4.738281 23.472656 4.726562 23.484375 4.71875 23.496094 C 4.707031 23.511719 4.695312 23.535156 4.683594 23.554688 C 4.679688 23.566406 4.671875 23.578125 4.667969 23.59375 C 4.648438 23.617188 4.632812 23.648438 4.613281 23.675781 C 4.597656 23.707031 4.578125 23.730469 4.566406 23.757812 C 4.566406 23.765625 4.5625 23.765625 4.5625 23.769531 C 4.542969 23.800781 4.53125 23.824219 4.515625 23.851562 C 4.503906 23.875 4.484375 23.90625 4.472656 23.929688 C 4.46875 23.941406 4.457031 23.957031 4.449219 23.96875 C 4.445312 23.976562 4.445312 23.980469 4.4375 23.992188 C 4.425781 24.015625 4.414062 24.039062 4.402344 24.0625 C 4.398438 24.070312 4.398438 24.074219 4.398438 24.082031 C 4.386719 24.109375 4.371094 24.140625 4.359375 24.167969 C 4.347656 24.195312 4.328125 24.226562 4.316406 24.253906 C 4.3125 24.273438 4.304688 24.285156 4.292969 24.300781 C 4.28125 24.332031 4.265625 24.367188 4.253906 24.394531 C 4.242188 24.425781 4.230469 24.460938 4.210938 24.488281 C 4.199219 24.519531 4.1875 24.554688 4.175781 24.582031 C 4.171875 24.59375 4.164062 24.613281 4.160156 24.625 C 4.148438 24.648438 4.140625 24.671875 4.128906 24.695312 C 4.125 24.710938 4.117188 24.722656 4.113281 24.742188 C 4.105469 24.765625 4.09375 24.789062 4.089844 24.8125 C 4.082031 24.828125 4.078125 24.847656 4.070312 24.871094 C 4.066406 24.894531 4.058594 24.917969 4.046875 24.933594 C 3.976562 25.148438 3.796875 25.3125 3.574219 25.359375 L 0.523438 26.007812 C 0.25 26.066406 -0.00390625 25.851562 0 25.578125 C 0.507812 21.777344 3.75 18.84375 7.683594 18.84375 C 11.449219 18.84375 14.589844 21.53125 15.289062 25.097656 Z M 15.289062 25.097656 "/>
</g>
</svg>
