<svg width="38" height="38" viewBox="0 0 38 38" fill="none" xmlns="http://www.w3.org/2000/svg">
<path d="M2.85927 16.7107C2.85927 16.7297 2.84977 16.7582 2.84977 16.7772C2.84027 17.2237 3.25827 17.5752 3.70477 17.4802L8.67327 16.4163C9.03427 16.3403 9.32877 16.0742 9.44277 15.7227C9.45227 15.6847 9.46177 15.6468 9.48077 15.6183C9.49027 15.5898 9.49977 15.5612 9.50927 15.5232C9.51877 15.4852 9.53777 15.4472 9.54727 15.4092C9.55677 15.3902 9.56627 15.3617 9.57577 15.3332C9.58527 15.2952 9.60427 15.2573 9.62327 15.2193C9.63277 15.2003 9.64227 15.1718 9.65177 15.1528C9.67077 15.1053 9.68977 15.0482 9.70877 15.0007C9.72777 14.9532 9.74677 14.8962 9.77527 14.8487C9.79427 14.8012 9.82277 14.7442 9.84177 14.6967C9.85127 14.6682 9.86077 14.6492 9.87977 14.6207C9.89877 14.5732 9.92727 14.5257 9.94627 14.4782C9.96527 14.4307 9.99377 14.3832 10.0128 14.3357C10.0128 14.3262 10.0223 14.3167 10.0223 14.3072C10.0413 14.2692 10.0603 14.2313 10.0793 14.1933C10.0888 14.1838 10.0888 14.1742 10.0983 14.1552C10.1078 14.1362 10.1268 14.1077 10.1363 14.0887C10.1553 14.0507 10.1838 14.0033 10.2028 13.9653C10.2313 13.9178 10.2503 13.8797 10.2788 13.8322C10.2788 13.8227 10.2883 13.8227 10.2883 13.8132C10.3073 13.7847 10.3358 13.7372 10.3643 13.6897C10.3928 13.6422 10.4213 13.5947 10.4498 13.5472C10.4593 13.5282 10.4783 13.5093 10.4878 13.4903C10.5068 13.4618 10.5258 13.4237 10.5448 13.3952C10.5543 13.3762 10.5733 13.3572 10.5828 13.3382C10.6398 13.2527 10.6968 13.1673 10.7538 13.0913C10.7633 13.0723 10.7823 13.0532 10.8013 13.0342C10.8298 12.9962 10.8583 12.9487 10.8963 12.9107C10.9248 12.8727 10.9628 12.8252 10.9913 12.7872C10.9913 12.7777 11.0008 12.7778 11.0103 12.7683C11.0483 12.7208 11.0768 12.6827 11.1148 12.6352C11.1528 12.5877 11.2003 12.5307 11.2383 12.4832C11.2478 12.4737 11.2573 12.4642 11.2668 12.4452C11.2953 12.4072 11.3238 12.3692 11.3618 12.3407C11.3618 12.3407 11.3618 12.3407 11.3713 12.3312C11.4093 12.2837 11.4473 12.2457 11.4853 12.2077C11.4948 12.1982 11.4948 12.1982 11.5043 12.1887C11.5423 12.1507 11.5803 12.1127 11.6183 12.0747C11.6278 12.0652 11.6373 12.0558 11.6373 12.0558C11.7133 11.9703 11.7988 11.8943 11.8748 11.8183L11.8843 11.8087C11.9223 11.7707 11.9698 11.7327 12.0078 11.6947C12.0173 11.6852 12.0173 11.6852 12.0268 11.6757C12.0648 11.6377 12.1123 11.5997 12.1503 11.5617C12.1883 11.5237 12.2263 11.4952 12.2643 11.4572C12.2738 11.4477 12.2833 11.4383 12.3023 11.4288C12.3403 11.3908 12.3878 11.3527 12.4258 11.3147C12.4638 11.2862 12.5018 11.2482 12.5398 11.2197C12.5588 11.2007 12.5778 11.1913 12.5968 11.1818C12.6348 11.1533 12.6728 11.1247 12.7108 11.0962L12.7203 11.0867C12.7678 11.0487 12.8153 11.0202 12.8628 10.9822C12.9863 10.8872 13.1098 10.8018 13.2428 10.7163C13.2713 10.6973 13.2903 10.6782 13.3188 10.6687C13.3948 10.6212 13.4708 10.5642 13.5563 10.5167C13.5848 10.4977 13.6133 10.4883 13.6323 10.4693C13.6608 10.4503 13.6798 10.4407 13.7083 10.4217C14.0123 10.2412 14.3258 10.0797 14.6488 9.9372C14.6773 9.9277 14.6963 9.9182 14.7248 9.8992C14.7533 9.8897 14.7818 9.8707 14.8198 9.8612C14.9338 9.8137 15.0383 9.7662 15.1523 9.7282C15.3518 9.6522 15.5418 9.5857 15.7508 9.5192C15.7793 9.5097 15.8078 9.5002 15.8458 9.4907C16.0358 9.4337 16.2353 9.3862 16.4253 9.3387C16.4728 9.3292 16.5298 9.3197 16.5868 9.3007C16.8338 9.2532 17.0713 9.2057 17.3278 9.1772C17.3658 9.1677 17.3943 9.1677 17.4323 9.1677C17.4513 9.1677 17.4798 9.1582 17.5083 9.1582C17.5368 9.1582 17.5558 9.1487 17.5843 9.1487C17.6128 9.1487 17.6508 9.1392 17.6793 9.1392C17.7078 9.1392 17.7458 9.1297 17.7743 9.1297C17.9643 9.1107 18.1638 9.1012 18.3538 9.1012C18.3823 9.1012 18.4108 9.1012 18.4393 9.1012C18.4773 9.1012 18.5248 9.1012 18.5628 9.1012C18.6008 9.1012 18.6483 9.1012 18.6863 9.1012C18.7148 9.1012 18.7433 9.1012 18.7718 9.1012C18.9808 9.1012 19.1898 9.1202 19.3893 9.1392C19.4273 9.1392 19.4558 9.1487 19.4938 9.1487C19.5223 9.1487 19.5508 9.1582 19.5888 9.1582C19.6078 9.1582 19.6268 9.1582 19.6458 9.1677C19.6743 9.1677 19.7123 9.1772 19.7408 9.1772C19.7598 9.1772 19.7883 9.1867 19.8073 9.1867C19.8358 9.1867 19.8548 9.1962 19.8833 9.1962C19.9213 9.2057 19.9593 9.2057 19.9973 9.2152C20.0353 9.2152 20.0638 9.2247 20.1018 9.2342C20.1683 9.2437 20.2348 9.2532 20.3013 9.2722C20.3298 9.2817 20.3583 9.2817 20.3868 9.2912C20.5863 9.3292 20.7953 9.3767 20.9948 9.4242C21.0233 9.4337 21.0613 9.4432 21.0898 9.4527C21.1183 9.4622 21.1563 9.4717 21.1848 9.4812C21.2513 9.5002 21.3083 9.5192 21.3748 9.5382C21.4413 9.5572 21.4983 9.5762 21.5648 9.5952C21.5933 9.6047 21.6313 9.6142 21.6598 9.6237C21.6883 9.6332 21.7263 9.6427 21.7548 9.6522C21.8213 9.6712 21.8783 9.6997 21.9448 9.7187C21.9733 9.7282 22.0018 9.7377 22.0303 9.7472C22.0683 9.7567 22.0968 9.7757 22.1348 9.7852C22.1633 9.7947 22.1918 9.8137 22.2298 9.8232C22.2868 9.8517 22.3533 9.8707 22.4103 9.8992C22.4388 9.9087 22.4768 9.9277 22.5053 9.9372C22.5623 9.9657 22.6193 9.9942 22.6763 10.0132C22.7333 10.0417 22.7903 10.0702 22.8378 10.0892C22.8663 10.1082 22.9043 10.1272 22.9328 10.1367C22.9803 10.1652 23.0373 10.1842 23.0848 10.2127C23.1228 10.2317 23.1608 10.2602 23.2083 10.2792C23.2368 10.2982 23.2558 10.3077 23.2843 10.3172C23.3413 10.3457 23.3983 10.3837 23.4553 10.4122C23.4838 10.4312 23.5123 10.4502 23.5408 10.4597C23.5693 10.4787 23.5978 10.4977 23.6263 10.5072C23.7118 10.5547 23.7878 10.6117 23.8733 10.6687C23.9018 10.6877 23.9303 10.7067 23.9493 10.7257C23.9778 10.7447 24.0063 10.7637 24.0253 10.7827L24.0348 10.7923C24.1298 10.8588 24.2153 10.9252 24.3103 10.9917C24.3958 11.0582 24.4813 11.1248 24.5668 11.1913C24.6048 11.2198 24.6428 11.2577 24.6808 11.2862C24.7188 11.3147 24.7568 11.3527 24.7948 11.3812C24.8138 11.4002 24.8423 11.4192 24.8613 11.4382C24.8898 11.4667 24.9183 11.4857 24.9468 11.5142C24.9658 11.5332 24.9848 11.5522 25.0038 11.5712C25.0323 11.5997 25.0608 11.6187 25.0893 11.6472C25.1083 11.6662 25.1273 11.6852 25.1463 11.7042C25.1843 11.7422 25.2223 11.7803 25.2603 11.8183C25.2888 11.8468 25.3173 11.8752 25.3553 11.9132C25.3838 11.9417 25.4218 11.9797 25.4503 12.0082C25.4788 12.0367 25.5073 12.0652 25.5358 12.1032C25.5548 12.1222 25.5643 12.1317 25.5833 12.1507C25.6118 12.1792 25.6403 12.2172 25.6688 12.2457C25.6973 12.2837 25.7258 12.3122 25.7638 12.3502C25.8018 12.3882 25.8303 12.4262 25.8683 12.4737L25.8778 12.4832C25.9063 12.5212 25.9348 12.5592 25.9728 12.5972C26.0678 12.7112 26.1533 12.8252 26.2388 12.9487C26.2673 12.9867 26.2958 13.0247 26.3243 13.0627C26.3338 13.0817 26.3433 13.0912 26.3528 13.1102C26.3813 13.1482 26.4098 13.1862 26.4383 13.2242C26.4763 13.2717 26.5048 13.3287 26.5428 13.3762C26.5713 13.4237 26.5998 13.4617 26.6283 13.5092C26.6663 13.5757 26.7138 13.6422 26.7518 13.7087C26.7803 13.7562 26.7993 13.7942 26.8278 13.8417C26.8373 13.8512 26.8468 13.8703 26.8468 13.8798C26.8753 13.9273 26.9038 13.9747 26.9228 14.0222C26.9513 14.0792 26.9798 14.1267 27.0083 14.1837V14.1933C27.0368 14.2408 27.0558 14.2882 27.0843 14.3452C27.0843 14.3547 27.0938 14.3642 27.0938 14.3737C27.1223 14.4212 27.1413 14.4782 27.1698 14.5257C27.1888 14.5637 27.2078 14.6017 27.2268 14.6397C27.2363 14.6682 27.2553 14.6872 27.2648 14.7157V14.7252C27.2838 14.7727 27.3028 14.8107 27.3218 14.8582V14.8677C27.3503 14.9247 27.3693 14.9817 27.3883 15.0387C27.4073 15.0862 27.4263 15.1337 27.4453 15.1812C27.4548 15.2002 27.4643 15.2192 27.4643 15.2382C27.4833 15.2857 27.4928 15.3237 27.5118 15.3712C27.5213 15.3902 27.5213 15.3997 27.5308 15.4187C27.5498 15.4567 27.5593 15.5043 27.5783 15.5423C27.5783 15.5518 27.5783 15.5517 27.5783 15.5612C27.5878 15.5802 27.5878 15.5993 27.5973 15.6183C27.6163 15.6658 27.6258 15.7132 27.6448 15.7607C27.6733 15.8557 27.7113 15.9318 27.7683 16.0173C27.9203 16.2453 28.1483 16.4067 28.4238 16.4637L33.3828 17.4897C33.8578 17.5847 34.2853 17.1952 34.2283 16.7107C33.2593 8.89229 26.5238 2.8502 18.5533 2.8502C10.5543 2.8217 3.81877 8.8732 2.85927 16.7107Z" fill="white"/>
<path d="M33.3746 19.6843L32.5101 19.8648C32.0351 19.9693 31.5601 20.0738 31.0851 20.1688C30.1921 20.3588 29.3086 20.5488 28.4156 20.7388H28.4061H28.3966C28.1591 20.7958 27.9501 20.9288 27.8076 21.1188C27.7411 21.2138 27.6841 21.3183 27.6461 21.4323C27.6366 21.4798 27.6176 21.5178 27.6081 21.5653C26.3636 25.3843 22.7726 28.1393 18.5356 28.1393C18.4976 28.1393 18.4501 28.1393 18.4121 28.1393C18.3836 28.1393 18.3551 28.1393 18.3266 28.1393C18.2886 28.1393 18.2506 28.1393 18.2221 28.1393C18.1841 28.1393 18.1556 28.1393 18.1176 28.1393C17.9751 28.1298 17.8421 28.1203 17.6996 28.1108C17.6711 28.1108 17.6426 28.1013 17.6046 28.1013C17.5856 28.1013 17.5571 28.1013 17.5381 28.0918C17.5096 28.0918 17.4811 28.0823 17.4526 28.0823C17.2531 28.0633 17.0536 28.0348 16.8636 27.9968C16.8351 27.9873 16.7971 27.9873 16.7686 27.9778C16.6071 27.9493 16.4551 27.9113 16.2936 27.8828C16.2651 27.8733 16.2271 27.8638 16.1986 27.8638C16.1416 27.8448 16.0751 27.8353 16.0181 27.8163C15.9896 27.8068 15.9706 27.8068 15.9421 27.7973C15.7046 27.7308 15.4671 27.6548 15.2391 27.5693C15.2106 27.5598 15.1726 27.5503 15.1441 27.5313C15.1251 27.5218 15.0966 27.5123 15.0776 27.5028C14.9731 27.4648 14.8686 27.4173 14.7641 27.3793C14.7166 27.3603 14.6691 27.3413 14.6216 27.3128C14.4601 27.2368 14.3081 27.1703 14.1561 27.0848C14.1276 27.0658 14.0991 27.0563 14.0706 27.0373C14.0231 27.0088 13.9756 26.9898 13.9281 26.9613C13.9091 26.9518 13.8806 26.9423 13.8616 26.9233C13.8426 26.9138 13.8331 26.9043 13.8141 26.8948C13.7856 26.8758 13.7571 26.8663 13.7286 26.8473C13.6716 26.8188 13.6146 26.7808 13.5576 26.7428C13.5291 26.7238 13.5006 26.7048 13.4721 26.6953C13.4436 26.6763 13.4151 26.6573 13.3866 26.6383C13.3581 26.6193 13.3296 26.6003 13.3011 26.5813C13.2631 26.5623 13.2346 26.5338 13.1966 26.5148C13.1681 26.4958 13.1301 26.4673 13.1016 26.4483C13.0351 26.4008 12.9781 26.3628 12.9116 26.3153C12.8831 26.2963 12.8451 26.2678 12.8166 26.2488C12.7786 26.2203 12.7501 26.2013 12.7121 26.1728C12.6741 26.1443 12.6361 26.1158 12.5981 26.0873C12.5886 26.0778 12.5791 26.0683 12.5696 26.0588C12.5506 26.0398 12.5316 26.0303 12.5126 26.0113C12.4841 25.9828 12.4461 25.9543 12.4081 25.9258C12.3891 25.9068 12.3701 25.8973 12.3606 25.8783C12.3321 25.8498 12.3036 25.8308 12.2656 25.8023C12.2466 25.7833 12.2276 25.7738 12.2086 25.7548C12.1991 25.7453 12.1896 25.7358 12.1801 25.7358C12.1516 25.7168 12.1326 25.6883 12.1041 25.6693C12.0471 25.6218 11.9901 25.5648 11.9426 25.5173C11.9141 25.4888 11.8761 25.4603 11.8476 25.4318C11.8001 25.3843 11.7526 25.3368 11.7051 25.2893C11.6861 25.2703 11.6671 25.2513 11.6481 25.2323C11.6196 25.2038 11.5816 25.1658 11.5531 25.1373C11.5151 25.0993 11.4771 25.0518 11.4296 25.0043C11.4296 25.0043 11.4296 24.9948 11.4201 24.9948C11.3821 24.9473 11.3441 24.9093 11.2966 24.8618L11.2871 24.8523C11.1256 24.6718 10.9736 24.4818 10.8311 24.2823C10.8216 24.2728 10.8121 24.2633 10.8026 24.2443C10.7741 24.2063 10.7456 24.1683 10.7171 24.1303C10.7171 24.1303 10.7171 24.1208 10.7076 24.1208C10.6791 24.0828 10.6506 24.0448 10.6316 24.0068C10.6126 23.9783 10.5936 23.9498 10.5746 23.9213C10.5461 23.8833 10.5271 23.8453 10.4986 23.8073C10.5176 23.7883 10.4796 23.7408 10.4511 23.6838C10.3846 23.5793 10.3276 23.4748 10.2611 23.3703C10.2611 23.3703 10.2611 23.3608 10.2516 23.3608C10.2231 23.3038 10.1946 23.2563 10.1566 23.1993C10.0996 23.0948 10.0426 22.9808 9.98564 22.8668C9.95714 22.8098 9.93814 22.7623 9.90964 22.7053C9.90014 22.6958 9.90014 22.6863 9.89064 22.6673C9.87164 22.6198 9.85264 22.5818 9.83364 22.5343C9.83364 22.5248 9.82414 22.5153 9.82414 22.5153C9.79564 22.4583 9.77664 22.4108 9.75764 22.3538C9.72914 22.2968 9.71014 22.2398 9.68164 22.1828C9.66264 22.1258 9.63414 22.0688 9.61514 22.0023C9.59614 21.9453 9.56764 21.8883 9.54864 21.8218C9.52964 21.7648 9.51064 21.7078 9.49164 21.6603V21.6508C9.47264 21.5843 9.44414 21.5178 9.42514 21.4513C9.42514 21.4418 9.42514 21.4418 9.41564 21.4323C9.30164 21.0903 9.00714 20.8433 8.66514 20.7673L3.69664 19.7413C3.28814 19.6558 2.91764 19.9408 2.86064 20.3208C2.85114 20.3873 2.85114 20.4443 2.86064 20.5203C3.80114 28.3483 10.4606 34.4093 18.5356 34.4093C22.0031 34.4093 25.2046 33.2978 27.8076 31.3978C27.8361 31.3788 27.8741 31.3503 27.9026 31.3313L27.9121 31.3218V31.7493C27.9121 32.6423 28.2636 33.4593 28.8336 34.0483C29.4036 34.6373 30.1921 34.9983 31.0661 34.9983C32.8141 34.9983 34.2201 33.5448 34.2201 31.7493V20.3968C34.2201 20.3493 34.2201 20.3018 34.2106 20.2638C34.1536 19.9313 33.8591 19.6748 33.5171 19.6748C33.4696 19.6653 33.4221 19.6748 33.3746 19.6843Z" fill="white"/>
<path d="M27.6069 21.5843C26.2199 27.0468 21.2704 31.0843 15.3709 31.0843C9.03438 31.0843 3.76188 26.4103 2.85938 20.3208C2.91637 19.9408 3.29638 19.6558 3.69538 19.7413L8.66388 20.7673C9.01538 20.8433 9.30038 21.0998 9.41438 21.4323C9.41438 21.4418 9.41438 21.4418 9.42388 21.4513C9.44288 21.5178 9.46188 21.5843 9.49038 21.6508V21.6603C9.50938 21.7173 9.52838 21.7743 9.54738 21.8218C9.56638 21.8788 9.59488 21.9453 9.61388 22.0023C9.63288 22.0593 9.66138 22.1163 9.68038 22.1828C9.70888 22.2398 9.72788 22.2968 9.75638 22.3538C9.77538 22.4108 9.80388 22.4583 9.82288 22.5153C9.82288 22.5248 9.83238 22.5343 9.83238 22.5343C9.85138 22.5818 9.87038 22.6198 9.88938 22.6673C9.89888 22.6768 9.89888 22.6863 9.90838 22.7053C9.93688 22.7623 9.95588 22.8098 9.98438 22.8668C10.0414 22.9808 10.0984 23.0853 10.1554 23.1993C10.1839 23.2563 10.2124 23.3038 10.2504 23.3608C10.2504 23.3608 10.2504 23.3703 10.2599 23.3703C10.3169 23.4748 10.3834 23.5793 10.4499 23.6838C10.4784 23.7408 10.5164 23.7883 10.5544 23.8453C10.5829 23.8833 10.6019 23.9213 10.6304 23.9593C10.6494 23.9878 10.6684 24.0163 10.6874 24.0448C10.7159 24.0828 10.7444 24.1208 10.7634 24.1588C10.7634 24.1588 10.7634 24.1683 10.7729 24.1683C10.8014 24.2063 10.8299 24.2443 10.8584 24.2823C10.8679 24.2918 10.8774 24.3108 10.8869 24.3203C11.0294 24.5103 11.1814 24.7003 11.3429 24.8903L11.3524 24.8998C11.3904 24.9473 11.4284 24.9853 11.4759 25.0328C11.4759 25.0328 11.4759 25.0423 11.4854 25.0423C11.5234 25.0898 11.5614 25.1278 11.6089 25.1753C11.6374 25.2133 11.6754 25.2418 11.7039 25.2703C11.7229 25.2893 11.7419 25.3083 11.7609 25.3273C11.8084 25.3748 11.8559 25.4223 11.9034 25.4698C11.9319 25.4983 11.9604 25.5268 11.9984 25.5553C12.0554 25.6028 12.1029 25.6598 12.1599 25.7073C12.1884 25.7263 12.2074 25.7548 12.2359 25.7738C12.2454 25.7833 12.2549 25.7928 12.2644 25.7928C12.2834 25.8118 12.3024 25.8213 12.3214 25.8403C12.3499 25.8688 12.3784 25.8878 12.4164 25.9163C12.4354 25.9353 12.4544 25.9448 12.4639 25.9638C12.4924 25.9923 12.5304 26.0208 12.5684 26.0493C12.5874 26.0683 12.6064 26.0778 12.6254 26.0968C12.6349 26.1063 12.6444 26.1158 12.6539 26.1253C12.6919 26.1538 12.7299 26.1823 12.7679 26.2108C12.8059 26.2393 12.8344 26.2678 12.8724 26.2868C12.9959 26.3818 13.1194 26.4673 13.2524 26.5528C13.2904 26.5718 13.3189 26.6003 13.3569 26.6193C13.3854 26.6383 13.4139 26.6573 13.4424 26.6763C13.4709 26.6953 13.4994 26.7143 13.5279 26.7333C13.5564 26.7523 13.5849 26.7713 13.6134 26.7808C13.6704 26.8188 13.7274 26.8473 13.7844 26.8853C13.8129 26.9043 13.8414 26.9138 13.8699 26.9328C13.8889 26.9423 13.8984 26.9518 13.9174 26.9613C13.9364 26.9708 13.9649 26.9898 13.9839 26.9993C14.0314 27.0278 14.0789 27.0563 14.1264 27.0753C14.1549 27.0943 14.1834 27.1038 14.2119 27.1228C14.3639 27.1988 14.5254 27.2748 14.6774 27.3508C14.7249 27.3698 14.7724 27.3888 14.8199 27.4173C14.9244 27.4648 15.0289 27.5028 15.1334 27.5408C15.1524 27.5503 15.1809 27.5598 15.1999 27.5693C15.2284 27.5788 15.2569 27.5883 15.2949 27.6073C15.5229 27.6928 15.7604 27.7688 15.9979 27.8353C16.0264 27.8448 16.0454 27.8448 16.0739 27.8543C16.1309 27.8733 16.1974 27.8828 16.2544 27.9018C16.2829 27.9113 16.3209 27.9208 16.3494 27.9208C16.5014 27.9588 16.6629 27.9873 16.8244 28.0158C16.8529 28.0253 16.8909 28.0253 16.9194 28.0348C17.1094 28.0728 17.3089 28.1013 17.5084 28.1203C17.5369 28.1203 17.5654 28.1298 17.5939 28.1298C17.6129 28.1298 17.6319 28.1298 17.6604 28.1393C17.6889 28.1393 17.7174 28.1488 17.7554 28.1488C17.8884 28.1583 18.0309 28.1678 18.1734 28.1773C18.2019 28.1773 18.2399 28.1773 18.2779 28.1773C18.3159 28.1773 18.3539 28.1773 18.3824 28.1773C18.4109 28.1773 18.4394 28.1773 18.4679 28.1773C18.5059 28.1773 18.5534 28.1773 18.5914 28.1773C22.7714 28.1583 26.3624 25.4033 27.6069 21.5843Z" fill="white"/>
<path d="M27.7493 15.998C27.7018 15.922 27.6543 15.8365 27.6258 15.7415C27.6068 15.694 27.5973 15.6465 27.5783 15.599C27.5688 15.58 27.5688 15.561 27.5593 15.542C27.5593 15.5325 27.5593 15.5325 27.5593 15.523C27.5403 15.485 27.5308 15.4375 27.5118 15.3995C27.5023 15.3805 27.5023 15.371 27.4928 15.352C27.4738 15.3045 27.4643 15.2665 27.4453 15.219C27.4358 15.2 27.4263 15.181 27.4263 15.162C27.4073 15.1145 27.3883 15.067 27.3693 15.0195C27.3503 14.9625 27.3218 14.9055 27.3028 14.8485V14.839C27.2838 14.7915 27.2648 14.7535 27.2458 14.706V14.6965C27.2363 14.668 27.2268 14.649 27.2078 14.6205C27.1888 14.5825 27.1698 14.5445 27.1508 14.5065C27.1318 14.459 27.1033 14.402 27.0748 14.3545C27.0653 14.345 27.0653 14.3355 27.0653 14.326C27.0368 14.2785 27.0178 14.231 26.9893 14.174V14.1645C26.9608 14.1075 26.9323 14.0505 26.9038 14.003C26.8753 13.9555 26.8468 13.908 26.8278 13.8605C26.8183 13.851 26.8088 13.832 26.8088 13.8225C26.7803 13.775 26.7613 13.737 26.7328 13.6895C26.6948 13.623 26.6568 13.5565 26.6093 13.49C26.5808 13.4425 26.5523 13.4045 26.5238 13.357C26.4858 13.3095 26.4573 13.2525 26.4193 13.205C26.3908 13.167 26.3623 13.129 26.3338 13.091C26.3243 13.072 26.3148 13.0625 26.3053 13.0435C26.2768 13.0055 26.2483 12.9675 26.2198 12.9295C26.1343 12.8155 26.0393 12.692 25.9538 12.578C25.9253 12.54 25.8968 12.502 25.8588 12.464L25.8493 12.4545C25.8113 12.4165 25.7828 12.3785 25.7448 12.331C25.7163 12.293 25.6878 12.2645 25.6498 12.2265C25.6213 12.198 25.5928 12.16 25.5643 12.1315C25.5453 12.1125 25.5358 12.103 25.5168 12.084C25.4883 12.0555 25.4598 12.0175 25.4313 11.989C25.4028 11.9605 25.3648 11.9225 25.3363 11.894C25.3078 11.8655 25.2793 11.837 25.2413 11.799C25.2033 11.761 25.1653 11.723 25.1273 11.685C25.1083 11.666 25.0893 11.647 25.0703 11.628C25.0418 11.5995 25.0133 11.5805 24.9848 11.552C24.9658 11.533 24.9468 11.514 24.9278 11.495C24.8993 11.4665 24.8708 11.4475 24.8423 11.419C24.8233 11.4 24.7948 11.381 24.7758 11.362C24.7378 11.3335 24.6998 11.2955 24.6618 11.267C24.6238 11.2385 24.5858 11.2005 24.5478 11.172C24.4623 11.1055 24.3768 11.039 24.2913 10.9725C24.1963 10.906 24.1108 10.8395 24.0158 10.773L24.0063 10.7635C23.9778 10.7445 23.9493 10.7255 23.9303 10.7065C23.9018 10.6875 23.8733 10.6685 23.8543 10.6495C23.7688 10.5925 23.6928 10.545 23.6073 10.488C23.5788 10.469 23.5503 10.45 23.5218 10.4405C23.4933 10.4215 23.4648 10.4025 23.4363 10.393C23.3793 10.355 23.3223 10.3265 23.2653 10.298C23.2368 10.279 23.2178 10.2695 23.1893 10.26C23.1513 10.241 23.1133 10.2125 23.0658 10.1935C23.0183 10.165 22.9613 10.1365 22.9138 10.1175C22.8853 10.0985 22.8473 10.0795 22.8188 10.07C22.7618 10.0415 22.7048 10.013 22.6573 9.99401C22.6003 9.96551 22.5433 9.93701 22.4863 9.91801C22.4578 9.89901 22.4198 9.88951 22.3913 9.88001C22.3343 9.85151 22.2678 9.82301 22.2108 9.80401C22.1823 9.79451 22.1538 9.77551 22.1158 9.76601C22.0778 9.75651 22.0493 9.73751 22.0113 9.72801C21.9828 9.71851 21.9543 9.70901 21.9258 9.69951C21.8688 9.68051 21.8023 9.65201 21.7358 9.63301C21.7073 9.62351 21.6693 9.61401 21.6408 9.60451C21.6123 9.59501 21.5743 9.58551 21.5458 9.57601C21.4793 9.55701 21.4223 9.53801 21.3558 9.51901C21.2893 9.50001 21.2323 9.48101 21.1658 9.46201C21.1373 9.45251 21.0993 9.44301 21.0708 9.43351C21.0423 9.42401 21.0043 9.41451 20.9758 9.40501C20.7763 9.34801 20.5768 9.31001 20.3678 9.27201C20.3393 9.26251 20.3108 9.26251 20.2823 9.25301C20.2158 9.24351 20.1493 9.22451 20.0828 9.21501C20.0543 9.20551 20.0163 9.20551 19.9783 9.19601C19.9403 9.18651 19.9023 9.18651 19.8548 9.17701C19.8263 9.17701 19.8073 9.16751 19.7788 9.16751C19.7598 9.16751 19.7313 9.15801 19.7123 9.15801C19.6838 9.15801 19.6458 9.14851 19.6173 9.14851C19.5983 9.14851 19.5793 9.13901 19.5603 9.13901C19.5318 9.13901 19.5033 9.12951 19.4653 9.12951C19.4273 9.12951 19.3988 9.12001 19.3608 9.12001C19.1518 9.10101 18.9523 9.09151 18.7433 9.08201C18.7148 9.08201 18.6863 9.08201 18.6578 9.08201C18.6198 9.08201 18.5723 9.08201 18.5343 9.08201C18.4963 9.08201 18.4488 9.08201 18.4108 9.08201C18.3823 9.08201 18.3538 9.08201 18.3253 9.08201C18.1258 9.08201 17.9358 9.10101 17.7458 9.11051C17.7173 9.11051 17.6793 9.12001 17.6508 9.12001C17.6223 9.12001 17.5843 9.12951 17.5558 9.12951C17.5273 9.12951 17.5083 9.13901 17.4798 9.13901C17.4513 9.13901 17.4323 9.14851 17.4038 9.14851C17.3658 9.14851 17.3373 9.15801 17.2993 9.15801C17.0523 9.18651 16.8053 9.23401 16.5583 9.28151C16.5013 9.29101 16.4538 9.30051 16.3968 9.31951C16.1973 9.36701 16.0073 9.41451 15.8173 9.47151C15.7888 9.48101 15.7508 9.49051 15.7223 9.50001C15.5228 9.56651 15.3233 9.63301 15.1238 9.70901C15.0098 9.75651 14.8958 9.79451 14.7913 9.84201C14.7628 9.85151 14.7343 9.87051 14.6963 9.88001C14.6678 9.88951 14.6488 9.89901 14.6203 9.91801C14.2973 10.0605 13.9838 10.222 13.6798 10.4025C13.6513 10.4215 13.6323 10.431 13.6038 10.45C13.5753 10.469 13.5468 10.4785 13.5278 10.4975C13.4518 10.545 13.3663 10.5925 13.2903 10.6495C13.2618 10.6685 13.2428 10.6875 13.2143 10.697C13.0813 10.7825 12.9578 10.868 12.8343 10.963C12.7868 11.001 12.7393 11.0295 12.6918 11.0675L12.6823 11.077C12.6443 11.1055 12.6063 11.134 12.5683 11.1625C12.5493 11.1815 12.5303 11.191 12.5113 11.2005C12.4733 11.229 12.4353 11.267 12.3973 11.2955C12.3498 11.3335 12.3118 11.3715 12.2738 11.4095C12.2643 11.419 12.2548 11.4285 12.2358 11.438C12.1978 11.476 12.1598 11.5045 12.1218 11.5425C12.0743 11.5805 12.0363 11.6185 11.9983 11.6565C11.9888 11.666 11.9888 11.666 11.9793 11.6755C11.9508 11.7135 11.9033 11.7515 11.8653 11.7895L11.8558 11.799C11.7703 11.875 11.6943 11.9605 11.6183 12.0365C11.6088 12.046 11.5993 12.0555 11.5993 12.0555C11.5613 12.0935 11.5233 12.1315 11.4853 12.1695C11.4758 12.179 11.4758 12.179 11.4663 12.1885C11.4378 12.2455 11.3998 12.2835 11.3618 12.331C11.3618 12.331 11.3618 12.331 11.3523 12.3405C11.3238 12.3785 11.2858 12.4165 11.2573 12.445C11.2478 12.4545 11.2383 12.464 11.2288 12.483C11.1908 12.5305 11.1433 12.578 11.1053 12.635C11.0673 12.6825 11.0293 12.7205 11.0008 12.768C10.9913 12.7775 10.9913 12.7775 10.9818 12.787C10.9533 12.825 10.9153 12.8725 10.8868 12.9105C10.8583 12.9485 10.8203 12.996 10.7918 13.034C10.7728 13.053 10.7633 13.072 10.7443 13.091C10.6873 13.1765 10.6303 13.2525 10.5733 13.338C10.5638 13.357 10.5448 13.376 10.5353 13.395C10.5163 13.4235 10.4973 13.4615 10.4783 13.49C10.4688 13.509 10.4593 13.528 10.4498 13.5565C10.4213 13.5945 10.3928 13.642 10.3643 13.6895C10.3358 13.737 10.3073 13.775 10.2883 13.8225C10.2883 13.832 10.2788 13.832 10.2788 13.8415C10.2503 13.889 10.2313 13.927 10.2028 13.9745C10.1838 14.0125 10.1553 14.06 10.1363 14.098C10.1268 14.117 10.1078 14.1455 10.0983 14.1645C10.0888 14.174 10.0888 14.1835 10.0793 14.2025C10.0603 14.2405 10.0413 14.2785 10.0223 14.3165C10.0128 14.326 10.0128 14.3355 10.0128 14.345C9.99377 14.3925 9.96527 14.44 9.94627 14.4875C9.92727 14.535 9.89877 14.5825 9.87977 14.63C9.87027 14.6585 9.86077 14.6775 9.84177 14.706C9.82277 14.7535 9.79427 14.8105 9.77527 14.858C9.75627 14.9055 9.73727 14.9625 9.70877 15.01C9.68977 15.0575 9.67077 15.1145 9.65177 15.162C9.64227 15.181 9.63277 15.2095 9.62327 15.2285C9.60427 15.2665 9.59477 15.3045 9.57577 15.3425C9.56627 15.371 9.55677 15.39 9.54727 15.4185C9.53777 15.4565 9.51877 15.4945 9.50927 15.5325C9.49977 15.561 9.49027 15.5895 9.48077 15.6275C9.47127 15.6655 9.46177 15.7035 9.44277 15.732C9.32877 16.0835 9.03427 16.3495 8.67327 16.4255L3.70477 17.48C3.25827 17.575 2.84027 17.2235 2.84977 16.777C3.67627 10.602 8.95827 5.83301 15.3613 5.83301C21.4983 5.83301 26.6093 10.203 27.7493 15.998Z" fill="white"/>
</svg>
