<svg width="32" height="32" viewBox="0 0 32 32" fill="none" xmlns="http://www.w3.org/2000/svg">
<path d="M16.5001 27H5.96258C5.83572 27.0017 5.70981 26.9779 5.59227 26.9302C5.47474 26.8824 5.36796 26.8115 5.27825 26.7218C5.18854 26.6321 5.1177 26.5253 5.06993 26.4078C5.02215 26.2903 4.9984 26.1644 5.00008 26.0375V15.5C5.00008 12.45 6.21169 9.52494 8.36836 7.36827C10.525 5.2116 13.4501 4 16.5001 4V4C18.0103 4 19.5057 4.29746 20.9009 4.87539C22.2962 5.45331 23.5639 6.3004 24.6318 7.36827C25.6997 8.43615 26.5468 9.7039 27.1247 11.0991C27.7026 12.4944 28.0001 13.9898 28.0001 15.5V15.5C28.0001 17.0102 27.7026 18.5056 27.1247 19.9009C26.5468 21.2961 25.6997 22.5639 24.6318 23.6317C23.5639 24.6996 22.2962 25.5467 20.9009 26.1246C19.5057 26.7025 18.0103 27 16.5001 27V27Z" stroke="white" stroke-width="3" stroke-linecap="round" stroke-linejoin="round"/>
<path d="M16.5 18C17.6046 18 18.5 17.1046 18.5 16C18.5 14.8954 17.6046 14 16.5 14C15.3954 14 14.5 14.8954 14.5 16C14.5 17.1046 15.3954 18 16.5 18Z" fill="white"/>
<path d="M22.5 18C23.6046 18 24.5 17.1046 24.5 16C24.5 14.8954 23.6046 14 22.5 14C21.3954 14 20.5 14.8954 20.5 16C20.5 17.1046 21.3954 18 22.5 18Z" fill="white"/>
<path d="M10.5 18C11.6046 18 12.5 17.1046 12.5 16C12.5 14.8954 11.6046 14 10.5 14C9.39543 14 8.5 14.8954 8.5 16C8.5 17.1046 9.39543 18 10.5 18Z" fill="white"/>
</svg>
